<mxfile host="app.diagrams.net" modified="2024-02-17T15:25:00.703Z" agent="Mozilla/5.0 (Windows NT 10.0; Win64; x64) AppleWebKit/537.36 (KHTML, like Gecko) Chrome/121.0.0.0 Safari/537.36" etag="dIYTzSfF3Uzlm9QA1cxM" version="23.1.2" type="github">
  <diagram name="Page-1" id="5cgKJNd5OM3I3Rc0reRp">
    <mxGraphModel dx="1687" dy="868" grid="1" gridSize="10" guides="1" tooltips="1" connect="1" arrows="1" fold="1" page="1" pageScale="1" pageWidth="1169" pageHeight="827" math="0" shadow="0">
      <root>
        <mxCell id="0" />
        <mxCell id="1" parent="0" />
        <mxCell id="WF0mu_H45He7Ej0Iz--u-1" value="&lt;font style=&quot;font-size: 12px;&quot;&gt;Farmer/Raw Ingredients Supplier&lt;/font&gt;" style="swimlane;whiteSpace=wrap;html=1;" parent="1" vertex="1">
          <mxGeometry x="50" y="97" width="230" height="313" as="geometry" />
        </mxCell>
        <mxCell id="WF0mu_H45He7Ej0Iz--u-7" style="edgeStyle=orthogonalEdgeStyle;rounded=0;orthogonalLoop=1;jettySize=auto;html=1;exitX=0.5;exitY=1;exitDx=0;exitDy=0;entryX=0.5;entryY=0;entryDx=0;entryDy=0;" parent="WF0mu_H45He7Ej0Iz--u-1" target="WF0mu_H45He7Ej0Iz--u-4" edge="1">
          <mxGeometry relative="1" as="geometry">
            <mxPoint x="115.00500000000011" y="111" as="sourcePoint" />
          </mxGeometry>
        </mxCell>
        <mxCell id="WF0mu_H45He7Ej0Iz--u-3" value="&lt;b&gt;&lt;font style=&quot;font-size: 10px;&quot;&gt;Harvest Crops&lt;/font&gt;&lt;/b&gt;" style="rounded=0;whiteSpace=wrap;html=1;" parent="WF0mu_H45He7Ej0Iz--u-1" vertex="1">
          <mxGeometry x="36.88" y="80" width="156.25" height="30" as="geometry" />
        </mxCell>
        <mxCell id="WF0mu_H45He7Ej0Iz--u-8" style="edgeStyle=orthogonalEdgeStyle;rounded=0;orthogonalLoop=1;jettySize=auto;html=1;exitX=0.5;exitY=1;exitDx=0;exitDy=0;entryX=0.5;entryY=0;entryDx=0;entryDy=0;" parent="WF0mu_H45He7Ej0Iz--u-1" source="WF0mu_H45He7Ej0Iz--u-4" target="WF0mu_H45He7Ej0Iz--u-5" edge="1">
          <mxGeometry relative="1" as="geometry" />
        </mxCell>
        <mxCell id="WF0mu_H45He7Ej0Iz--u-4" value="&lt;b&gt;&lt;font style=&quot;font-size: 10px;&quot;&gt;List harvested crops on &#39;marketplace&#39;&lt;/font&gt;&lt;/b&gt;" style="rounded=0;whiteSpace=wrap;html=1;" parent="WF0mu_H45He7Ej0Iz--u-1" vertex="1">
          <mxGeometry x="16.88" y="141" width="196.25" height="30" as="geometry" />
        </mxCell>
        <mxCell id="WF0mu_H45He7Ej0Iz--u-5" value="&lt;b&gt;&lt;font style=&quot;font-size: 10px;&quot;&gt;Ship sold harvested crops&lt;/font&gt;&lt;/b&gt;" style="rounded=0;whiteSpace=wrap;html=1;" parent="WF0mu_H45He7Ej0Iz--u-1" vertex="1">
          <mxGeometry x="18.439999999999998" y="195" width="193.12" height="30" as="geometry" />
        </mxCell>
        <mxCell id="_yqBdv2UkyTfBWO_AuOF-4" style="edgeStyle=orthogonalEdgeStyle;rounded=0;orthogonalLoop=1;jettySize=auto;html=1;exitX=0.5;exitY=1;exitDx=0;exitDy=0;entryX=0.5;entryY=0;entryDx=0;entryDy=0;" edge="1" parent="WF0mu_H45He7Ej0Iz--u-1" source="_yqBdv2UkyTfBWO_AuOF-1" target="WF0mu_H45He7Ej0Iz--u-3">
          <mxGeometry relative="1" as="geometry" />
        </mxCell>
        <mxCell id="_yqBdv2UkyTfBWO_AuOF-1" value="" style="ellipse;whiteSpace=wrap;html=1;aspect=fixed;" vertex="1" parent="WF0mu_H45He7Ej0Iz--u-1">
          <mxGeometry x="105" y="30" width="20" height="20" as="geometry" />
        </mxCell>
        <mxCell id="WF0mu_H45He7Ej0Iz--u-9" value="&lt;font style=&quot;font-size: 12px;&quot;&gt;Producers&lt;/font&gt;" style="swimlane;whiteSpace=wrap;html=1;" parent="1" vertex="1">
          <mxGeometry x="360" y="97" width="230" height="393" as="geometry" />
        </mxCell>
        <mxCell id="WF0mu_H45He7Ej0Iz--u-10" style="edgeStyle=orthogonalEdgeStyle;rounded=0;orthogonalLoop=1;jettySize=auto;html=1;exitX=0.5;exitY=1;exitDx=0;exitDy=0;entryX=0.5;entryY=0;entryDx=0;entryDy=0;" parent="WF0mu_H45He7Ej0Iz--u-9" source="WF0mu_H45He7Ej0Iz--u-11" target="WF0mu_H45He7Ej0Iz--u-13" edge="1">
          <mxGeometry relative="1" as="geometry" />
        </mxCell>
        <mxCell id="WF0mu_H45He7Ej0Iz--u-11" value="&lt;b&gt;&lt;font style=&quot;font-size: 10px;&quot;&gt;Purchase Raw Ingredients&lt;/font&gt;&lt;/b&gt;" style="rounded=0;whiteSpace=wrap;html=1;" parent="WF0mu_H45He7Ej0Iz--u-9" vertex="1">
          <mxGeometry x="36.88" y="76" width="156.25" height="30" as="geometry" />
        </mxCell>
        <mxCell id="WF0mu_H45He7Ej0Iz--u-12" style="edgeStyle=orthogonalEdgeStyle;rounded=0;orthogonalLoop=1;jettySize=auto;html=1;exitX=0.5;exitY=1;exitDx=0;exitDy=0;entryX=0.5;entryY=0;entryDx=0;entryDy=0;" parent="WF0mu_H45He7Ej0Iz--u-9" source="WF0mu_H45He7Ej0Iz--u-13" target="WF0mu_H45He7Ej0Iz--u-14" edge="1">
          <mxGeometry relative="1" as="geometry" />
        </mxCell>
        <mxCell id="WF0mu_H45He7Ej0Iz--u-13" value="&lt;b&gt;&lt;font style=&quot;font-size: 10px;&quot;&gt;Process to finished product&lt;br&gt;&lt;/font&gt;&lt;/b&gt;" style="rounded=0;whiteSpace=wrap;html=1;" parent="WF0mu_H45He7Ej0Iz--u-9" vertex="1">
          <mxGeometry x="16.88" y="125" width="196.25" height="30" as="geometry" />
        </mxCell>
        <mxCell id="WF0mu_H45He7Ej0Iz--u-19" style="edgeStyle=orthogonalEdgeStyle;rounded=0;orthogonalLoop=1;jettySize=auto;html=1;exitX=0.5;exitY=1;exitDx=0;exitDy=0;" parent="WF0mu_H45He7Ej0Iz--u-9" source="WF0mu_H45He7Ej0Iz--u-14" target="WF0mu_H45He7Ej0Iz--u-18" edge="1">
          <mxGeometry relative="1" as="geometry" />
        </mxCell>
        <mxCell id="WF0mu_H45He7Ej0Iz--u-14" value="&lt;b&gt;&lt;font style=&quot;font-size: 10px;&quot;&gt;Pack finished product&lt;/font&gt;&lt;/b&gt;" style="rounded=0;whiteSpace=wrap;html=1;" parent="WF0mu_H45He7Ej0Iz--u-9" vertex="1">
          <mxGeometry x="18.439999999999998" y="179" width="193.12" height="30" as="geometry" />
        </mxCell>
        <mxCell id="WF0mu_H45He7Ej0Iz--u-22" style="edgeStyle=orthogonalEdgeStyle;rounded=0;orthogonalLoop=1;jettySize=auto;html=1;exitX=0.5;exitY=1;exitDx=0;exitDy=0;entryX=0.5;entryY=0;entryDx=0;entryDy=0;" parent="WF0mu_H45He7Ej0Iz--u-9" source="WF0mu_H45He7Ej0Iz--u-18" target="WF0mu_H45He7Ej0Iz--u-20" edge="1">
          <mxGeometry relative="1" as="geometry" />
        </mxCell>
        <mxCell id="WF0mu_H45He7Ej0Iz--u-18" value="&lt;b&gt;&lt;font style=&quot;font-size: 10px;&quot;&gt;List finished products for sale &lt;br&gt;to retailers&lt;/font&gt;&lt;/b&gt;" style="rounded=0;whiteSpace=wrap;html=1;" parent="WF0mu_H45He7Ej0Iz--u-9" vertex="1">
          <mxGeometry x="18.43999999999999" y="236" width="193.12" height="30" as="geometry" />
        </mxCell>
        <mxCell id="WF0mu_H45He7Ej0Iz--u-23" style="edgeStyle=orthogonalEdgeStyle;rounded=0;orthogonalLoop=1;jettySize=auto;html=1;exitX=0.5;exitY=1;exitDx=0;exitDy=0;entryX=0.5;entryY=0;entryDx=0;entryDy=0;" parent="WF0mu_H45He7Ej0Iz--u-9" source="WF0mu_H45He7Ej0Iz--u-20" target="WF0mu_H45He7Ej0Iz--u-21" edge="1">
          <mxGeometry relative="1" as="geometry" />
        </mxCell>
        <mxCell id="WF0mu_H45He7Ej0Iz--u-20" value="&lt;span style=&quot;font-size: 10px;&quot;&gt;&lt;b&gt;Sell finished products&lt;/b&gt;&lt;/span&gt;" style="rounded=0;whiteSpace=wrap;html=1;" parent="WF0mu_H45He7Ej0Iz--u-9" vertex="1">
          <mxGeometry x="18.45" y="289" width="193.12" height="30" as="geometry" />
        </mxCell>
        <mxCell id="WF0mu_H45He7Ej0Iz--u-21" value="&lt;span style=&quot;font-size: 10px;&quot;&gt;&lt;b&gt;Ship finished products&lt;/b&gt;&lt;/span&gt;" style="rounded=0;whiteSpace=wrap;html=1;" parent="WF0mu_H45He7Ej0Iz--u-9" vertex="1">
          <mxGeometry x="18.439999999999998" y="341" width="193.12" height="30" as="geometry" />
        </mxCell>
        <mxCell id="_yqBdv2UkyTfBWO_AuOF-6" style="edgeStyle=orthogonalEdgeStyle;rounded=0;orthogonalLoop=1;jettySize=auto;html=1;entryX=0.5;entryY=0;entryDx=0;entryDy=0;" edge="1" parent="WF0mu_H45He7Ej0Iz--u-9" source="_yqBdv2UkyTfBWO_AuOF-5" target="WF0mu_H45He7Ej0Iz--u-11">
          <mxGeometry relative="1" as="geometry" />
        </mxCell>
        <mxCell id="_yqBdv2UkyTfBWO_AuOF-5" value="" style="ellipse;whiteSpace=wrap;html=1;aspect=fixed;" vertex="1" parent="WF0mu_H45He7Ej0Iz--u-9">
          <mxGeometry x="105" y="33" width="20" height="20" as="geometry" />
        </mxCell>
        <mxCell id="WF0mu_H45He7Ej0Iz--u-15" style="edgeStyle=orthogonalEdgeStyle;rounded=0;orthogonalLoop=1;jettySize=auto;html=1;exitX=1;exitY=0.5;exitDx=0;exitDy=0;entryX=0;entryY=0.5;entryDx=0;entryDy=0;" parent="1" source="WF0mu_H45He7Ej0Iz--u-5" target="WF0mu_H45He7Ej0Iz--u-11" edge="1">
          <mxGeometry relative="1" as="geometry" />
        </mxCell>
        <mxCell id="WF0mu_H45He7Ej0Iz--u-16" style="edgeStyle=orthogonalEdgeStyle;rounded=0;orthogonalLoop=1;jettySize=auto;html=1;exitX=0;exitY=0.75;exitDx=0;exitDy=0;entryX=1;entryY=0.75;entryDx=0;entryDy=0;" parent="1" source="WF0mu_H45He7Ej0Iz--u-11" target="WF0mu_H45He7Ej0Iz--u-5" edge="1">
          <mxGeometry relative="1" as="geometry" />
        </mxCell>
        <mxCell id="CVCdur7km3AYFx5HG1rz-1" value="&lt;font style=&quot;font-size: 12px;&quot;&gt;Retailer&lt;/font&gt;" style="swimlane;whiteSpace=wrap;html=1;" parent="1" vertex="1">
          <mxGeometry x="640" y="97" width="230" height="260" as="geometry" />
        </mxCell>
        <mxCell id="CVCdur7km3AYFx5HG1rz-2" style="edgeStyle=orthogonalEdgeStyle;rounded=0;orthogonalLoop=1;jettySize=auto;html=1;exitX=0.5;exitY=1;exitDx=0;exitDy=0;entryX=0.5;entryY=0;entryDx=0;entryDy=0;" parent="CVCdur7km3AYFx5HG1rz-1" source="CVCdur7km3AYFx5HG1rz-3" edge="1">
          <mxGeometry relative="1" as="geometry">
            <mxPoint x="115.00500000000011" y="100" as="targetPoint" />
          </mxGeometry>
        </mxCell>
        <mxCell id="_yqBdv2UkyTfBWO_AuOF-7" style="edgeStyle=orthogonalEdgeStyle;rounded=0;orthogonalLoop=1;jettySize=auto;html=1;exitX=0.5;exitY=1;exitDx=0;exitDy=0;entryX=0.5;entryY=0;entryDx=0;entryDy=0;" edge="1" parent="CVCdur7km3AYFx5HG1rz-1" source="CVCdur7km3AYFx5HG1rz-3" target="CVCdur7km3AYFx5HG1rz-7">
          <mxGeometry relative="1" as="geometry" />
        </mxCell>
        <mxCell id="CVCdur7km3AYFx5HG1rz-3" value="&lt;b&gt;&lt;font style=&quot;font-size: 10px;&quot;&gt;Purchase Finished Product&lt;/font&gt;&lt;/b&gt;" style="rounded=0;whiteSpace=wrap;html=1;" parent="CVCdur7km3AYFx5HG1rz-1" vertex="1">
          <mxGeometry x="36.88" y="92" width="156.25" height="30" as="geometry" />
        </mxCell>
        <mxCell id="CVCdur7km3AYFx5HG1rz-13" style="edgeStyle=orthogonalEdgeStyle;rounded=0;orthogonalLoop=1;jettySize=auto;html=1;exitX=0.5;exitY=1;exitDx=0;exitDy=0;entryX=0.5;entryY=0;entryDx=0;entryDy=0;" parent="CVCdur7km3AYFx5HG1rz-1" source="CVCdur7km3AYFx5HG1rz-7" target="CVCdur7km3AYFx5HG1rz-12" edge="1">
          <mxGeometry relative="1" as="geometry" />
        </mxCell>
        <mxCell id="CVCdur7km3AYFx5HG1rz-7" value="&lt;b&gt;&lt;font style=&quot;font-size: 10px;&quot;&gt;List stock on &#39;marketplace&#39;&lt;/font&gt;&lt;/b&gt;" style="rounded=0;whiteSpace=wrap;html=1;" parent="CVCdur7km3AYFx5HG1rz-1" vertex="1">
          <mxGeometry x="18.439999999999998" y="153" width="193.12" height="30" as="geometry" />
        </mxCell>
        <mxCell id="CVCdur7km3AYFx5HG1rz-12" value="&lt;span style=&quot;font-size: 10px;&quot;&gt;&lt;b&gt;Ship orders&lt;/b&gt;&lt;/span&gt;" style="rounded=0;whiteSpace=wrap;html=1;" parent="CVCdur7km3AYFx5HG1rz-1" vertex="1">
          <mxGeometry x="18.439999999999998" y="210" width="193.12" height="30" as="geometry" />
        </mxCell>
        <mxCell id="_yqBdv2UkyTfBWO_AuOF-11" style="edgeStyle=orthogonalEdgeStyle;rounded=0;orthogonalLoop=1;jettySize=auto;html=1;entryX=0.5;entryY=0;entryDx=0;entryDy=0;" edge="1" parent="CVCdur7km3AYFx5HG1rz-1" source="_yqBdv2UkyTfBWO_AuOF-10" target="CVCdur7km3AYFx5HG1rz-3">
          <mxGeometry relative="1" as="geometry" />
        </mxCell>
        <mxCell id="_yqBdv2UkyTfBWO_AuOF-10" value="" style="ellipse;whiteSpace=wrap;html=1;aspect=fixed;" vertex="1" parent="CVCdur7km3AYFx5HG1rz-1">
          <mxGeometry x="105" y="33" width="20" height="20" as="geometry" />
        </mxCell>
        <mxCell id="CVCdur7km3AYFx5HG1rz-14" value="&lt;font style=&quot;font-size: 12px;&quot;&gt;Consumer&lt;/font&gt;" style="swimlane;whiteSpace=wrap;html=1;" parent="1" vertex="1">
          <mxGeometry x="930" y="97" width="230" height="260" as="geometry" />
        </mxCell>
        <mxCell id="CVCdur7km3AYFx5HG1rz-16" value="&lt;b&gt;&lt;font style=&quot;font-size: 10px;&quot;&gt;Purchase Finished Product&lt;/font&gt;&lt;/b&gt;" style="rounded=0;whiteSpace=wrap;html=1;" parent="CVCdur7km3AYFx5HG1rz-14" vertex="1">
          <mxGeometry x="36.88" y="83" width="156.25" height="30" as="geometry" />
        </mxCell>
        <mxCell id="CVCdur7km3AYFx5HG1rz-17" style="edgeStyle=orthogonalEdgeStyle;rounded=0;orthogonalLoop=1;jettySize=auto;html=1;exitX=0.5;exitY=1;exitDx=0;exitDy=0;entryX=0.5;entryY=0;entryDx=0;entryDy=0;" parent="CVCdur7km3AYFx5HG1rz-14" source="CVCdur7km3AYFx5HG1rz-16" target="CVCdur7km3AYFx5HG1rz-19" edge="1">
          <mxGeometry relative="1" as="geometry">
            <mxPoint x="115" y="130" as="sourcePoint" />
          </mxGeometry>
        </mxCell>
        <mxCell id="CVCdur7km3AYFx5HG1rz-19" value="&lt;b style=&quot;font-size: 10px;&quot;&gt;Track &lt;/b&gt;&lt;span style=&quot;font-size: 10px;&quot;&gt;&lt;b&gt;traceability&lt;/b&gt;&lt;/span&gt;&lt;b style=&quot;font-size: 10px;&quot;&gt;&amp;nbsp;of product through QR Code&lt;/b&gt;" style="rounded=0;whiteSpace=wrap;html=1;" parent="CVCdur7km3AYFx5HG1rz-14" vertex="1">
          <mxGeometry x="18.439999999999998" y="170" width="193.12" height="30" as="geometry" />
        </mxCell>
        <mxCell id="_yqBdv2UkyTfBWO_AuOF-13" style="edgeStyle=orthogonalEdgeStyle;rounded=0;orthogonalLoop=1;jettySize=auto;html=1;entryX=0.5;entryY=0;entryDx=0;entryDy=0;" edge="1" parent="CVCdur7km3AYFx5HG1rz-14" source="_yqBdv2UkyTfBWO_AuOF-12" target="CVCdur7km3AYFx5HG1rz-16">
          <mxGeometry relative="1" as="geometry" />
        </mxCell>
        <mxCell id="_yqBdv2UkyTfBWO_AuOF-12" value="" style="ellipse;whiteSpace=wrap;html=1;aspect=fixed;" vertex="1" parent="CVCdur7km3AYFx5HG1rz-14">
          <mxGeometry x="105" y="33" width="20" height="20" as="geometry" />
        </mxCell>
        <mxCell id="CVCdur7km3AYFx5HG1rz-20" style="edgeStyle=orthogonalEdgeStyle;rounded=0;orthogonalLoop=1;jettySize=auto;html=1;exitX=1;exitY=0.5;exitDx=0;exitDy=0;entryX=0;entryY=0.25;entryDx=0;entryDy=0;" parent="1" source="CVCdur7km3AYFx5HG1rz-12" target="CVCdur7km3AYFx5HG1rz-16" edge="1">
          <mxGeometry relative="1" as="geometry" />
        </mxCell>
        <mxCell id="CVCdur7km3AYFx5HG1rz-21" style="edgeStyle=orthogonalEdgeStyle;rounded=0;orthogonalLoop=1;jettySize=auto;html=1;exitX=0;exitY=0.5;exitDx=0;exitDy=0;entryX=1;entryY=0.75;entryDx=0;entryDy=0;" parent="1" source="CVCdur7km3AYFx5HG1rz-16" target="CVCdur7km3AYFx5HG1rz-12" edge="1">
          <mxGeometry relative="1" as="geometry" />
        </mxCell>
        <mxCell id="CVCdur7km3AYFx5HG1rz-22" style="edgeStyle=orthogonalEdgeStyle;rounded=0;orthogonalLoop=1;jettySize=auto;html=1;exitX=1;exitY=0.5;exitDx=0;exitDy=0;entryX=0;entryY=0.5;entryDx=0;entryDy=0;" parent="1" source="WF0mu_H45He7Ej0Iz--u-21" target="CVCdur7km3AYFx5HG1rz-3" edge="1">
          <mxGeometry relative="1" as="geometry" />
        </mxCell>
        <mxCell id="CVCdur7km3AYFx5HG1rz-23" style="edgeStyle=orthogonalEdgeStyle;rounded=0;orthogonalLoop=1;jettySize=auto;html=1;exitX=0;exitY=0.75;exitDx=0;exitDy=0;entryX=1;entryY=0.75;entryDx=0;entryDy=0;" parent="1" source="CVCdur7km3AYFx5HG1rz-3" target="WF0mu_H45He7Ej0Iz--u-21" edge="1">
          <mxGeometry relative="1" as="geometry" />
        </mxCell>
        <mxCell id="CVCdur7km3AYFx5HG1rz-24" style="edgeStyle=orthogonalEdgeStyle;rounded=0;orthogonalLoop=1;jettySize=auto;html=1;exitX=0.5;exitY=1;exitDx=0;exitDy=0;entryX=0.5;entryY=1;entryDx=0;entryDy=0;" parent="1" source="WF0mu_H45He7Ej0Iz--u-21" target="CVCdur7km3AYFx5HG1rz-14" edge="1">
          <mxGeometry relative="1" as="geometry">
            <Array as="points">
              <mxPoint x="475" y="507" />
              <mxPoint x="1045" y="507" />
            </Array>
          </mxGeometry>
        </mxCell>
        <mxCell id="CVCdur7km3AYFx5HG1rz-25" value="&lt;b&gt;POSSIBLE?&lt;/b&gt;" style="text;html=1;align=center;verticalAlign=middle;resizable=0;points=[];autosize=1;strokeColor=none;fillColor=none;" parent="1" vertex="1">
          <mxGeometry x="720" y="477" width="90" height="30" as="geometry" />
        </mxCell>
        <mxCell id="CVCdur7km3AYFx5HG1rz-26" value="&lt;b&gt;&lt;font style=&quot;font-size: 20px;&quot;&gt;ACTIVITY DIAGRAM&lt;/font&gt;&lt;/b&gt;" style="text;html=1;align=center;verticalAlign=middle;resizable=0;points=[];autosize=1;strokeColor=none;fillColor=none;" parent="1" vertex="1">
          <mxGeometry x="50" y="30" width="220" height="40" as="geometry" />
        </mxCell>
        <mxCell id="CVCdur7km3AYFx5HG1rz-27" value="&lt;b style=&quot;font-size: 16px;&quot;&gt;&lt;font style=&quot;font-size: 16px;&quot;&gt;Problems:&lt;br&gt;&lt;ul&gt;&lt;li&gt;&lt;b&gt;&lt;font style=&quot;font-size: 16px;&quot;&gt;How can we ensure that the producers are using the specific batch of ingredients as added to the tracing journey?&lt;/font&gt;&lt;/b&gt;&lt;/li&gt;&lt;li&gt;&lt;b&gt;&lt;font style=&quot;font-size: 16px;&quot;&gt;How can we ensure that the farmer is shipping the exact raw ingredients as stated in the PO/ Or from the batch they claim&lt;/font&gt;&lt;/b&gt;&lt;/li&gt;&lt;/ul&gt;&lt;/font&gt;&lt;/b&gt;" style="text;html=1;align=left;verticalAlign=middle;resizable=0;points=[];autosize=1;strokeColor=none;fillColor=none;" parent="1" vertex="1">
          <mxGeometry x="50" y="527" width="990" height="100" as="geometry" />
        </mxCell>
      </root>
    </mxGraphModel>
  </diagram>
</mxfile>
